PathFileType	4	(X/Y/Z)	pose_F01_0-96.trc
DataRate	CameraRate	NumFrames	NumMarkers	Units	OrigDataRate	OrigDataStartFrame	OrigNumFrames
30	30	7	21	m	30	24	96
Frame#	Time	CHip			RHip			RKnee			RAnkle			RBigToe			RSmallToe			RHeel			LHip			LKnee			LAnkle			LBigToe			LSmallToe			LHeel			Neck			Nose			RShoulder			RElbow			RWrist			LShoulder			LElbow			LWrist			
		X1	Y1	Z1	X2	Y2	Z2	X3	Y3	Z3	X4	Y4	Z4	X5	Y5	Z5	X6	Y6	Z6	X7	Y7	Z7	X8	Y8	Z8	X9	Y9	Z9	X10	Y10	Z10	X11	Y11	Z11	X12	Y12	Z12	X13	Y13	Z13	X14	Y14	Z14	X15	Y15	Z15	X16	Y16	Z16	X17	Y17	Z17	X18	Y18	Z18	X19	Y19	Z19	X20	Y20	Z20	X21	Y21	Z21	
24	0.8	-0.2940917377368076	1.8342232041518758	-0.7000177919063582	-0.31284269916252533	1.8291821828478203	-0.6310143356478287	-0.3024894710317929	1.689294498883445	-0.5965422956435225	-0.2954767202767287	1.559905627321199	-0.5668751742451404	-0.2863604797215126	1.5326370749065632	-0.525210289074862	-0.29574349110482373	1.5395369121811635	-0.5021410374379638	-0.29965650022383	1.550705777434455	-0.5956924859563897	-0.2758421224723177	1.83645636101155	-0.7665755225613897	-0.2814992961573878	1.6879141406503195	-0.7474685496965418	-0.2420055273115262	1.5756574266640357	-0.7336205761882466	-0.38029063468604746	1.5065013385349555	-1.0582667149606126	-0.367378507053011	1.510238564997473	-1.0833399886814208				-0.2851454417360141	1.9988965950859794	-0.7128685986627489	-0.26619718703396344	2.064972292351387	-0.6654358065071364	-0.3127743016949179	1.9925223266848533	-0.6189913423353145	-0.3192154851343613	1.9078315692336978	-0.5596695363315219	-1.6430133290596005	1.884612843055058	0.9801552249272775	-0.25670673828099794	2.0038737391944563	-0.8045565773112482	-1.074332340055374	1.836362041881171	0.05573691582950875	-1.1360056186216803	1.8644252743295953	0.20543876908780376
25	0.8333333333333334	-0.2940917377368076	1.8342232041518758	-0.7000177919063582	-0.31284269916252533	1.8291821828478203	-0.6310143356478287	-0.3024894710317929	1.689294498883445	-0.5965422956435225	-0.2954767202767287	1.559905627321199	-0.5668751742451404	-0.2863604797215126	1.5326370749065632	-0.525210289074862	-0.29574349110482373	1.5395369121811635	-0.5021410374379638	-0.29965650022383	1.550705777434455	-0.5956924859563897	-0.2758421224723177	1.83645636101155	-0.7665755225613897	-0.2814992961573878	1.6879141406503195	-0.7474685496965418	-0.2420055273115262	1.5756574266640357	-0.7336205761882466	-0.38029063468604746	1.5065013385349555	-1.0582667149606126	-0.367378507053011	1.510238564997473	-1.0833399886814208				-0.2851454417360141	1.9988965950859794	-0.7128685986627489	-0.26619718703396344	2.064972292351387	-0.6654358065071364	-0.3127743016949179	1.9925223266848533	-0.6189913423353145	-0.3192154851343613	1.9078315692336978	-0.5596695363315219	-1.6430133290596005	1.884612843055058	0.9801552249272775	-0.25670673828099794	2.0038737391944563	-0.8045565773112482	-1.060375038500077	1.8316466897448542	0.020887163960308573	-1.0743567740990878	1.8512120514271124	0.10350782532934134
26	0.8666666666666667	-0.2940917377368076	1.8342232041518758	-0.7000177919063582	-0.31284269916252533	1.8291821828478203	-0.6310143356478287	-0.3024894710317929	1.689294498883445	-0.5965422956435225	-0.2954767202767287	1.559905627321199	-0.5668751742451404	-0.2863604797215126	1.5326370749065632	-0.525210289074862	-0.29574349110482373	1.5395369121811635	-0.5021410374379638	-0.29965650022383	1.550705777434455	-0.5956924859563897	-0.2758421224723177	1.83645636101155	-0.7665755225613897	-0.2814992961573878	1.6879141406503195	-0.7474685496965418	-0.2420055273115262	1.5756574266640357	-0.7336205761882466	-0.38029063468604746	1.5065013385349555	-1.0582667149606126	-0.367378507053011	1.510238564997473	-1.0833399886814208				-0.2851454417360141	1.9988965950859794	-0.7128685986627489	-0.26619718703396344	2.064972292351387	-0.6654358065071364	-0.3127743016949179	1.9925223266848533	-0.6189913423353145	-0.3192154851343613	1.9078315692336978	-0.5596695363315219	-1.6430133290596005	1.884612843055058	0.9801552249272775	-0.25670673828099794	2.0038737391944563	-0.8045565773112482	-1.07265708897125	1.8271743945112047	0.036851764041210607	-1.0998025075812148	1.8455581680395905	0.13518838337950365
27	0.9	-0.2940917377368076	1.8342232041518758	-0.7000177919063582	-0.31284269916252533	1.8291821828478203	-0.6310143356478287	-0.3024894710317929	1.689294498883445	-0.5965422956435225	-0.2954767202767287	1.559905627321199	-0.5668751742451404	-0.2863604797215126	1.5326370749065632	-0.525210289074862	-0.29574349110482373	1.5395369121811635	-0.5021410374379638	-0.29965650022383	1.550705777434455	-0.5956924859563897	-0.2758421224723177	1.83645636101155	-0.7665755225613897	-0.2814992961573878	1.6879141406503195	-0.7474685496965418	-0.2420055273115262	1.5756574266640357	-0.7336205761882466	-0.38029063468604746	1.5065013385349555	-1.0582667149606126	-0.367378507053011	1.510238564997473	-1.0833399886814208				-0.2851454417360141	1.9988965950859794	-0.7128685986627489	-0.26619718703396344	2.064972292351387	-0.6654358065071364	-0.3127743016949179	1.9925223266848533	-0.6189913423353145	-0.3192154851343613	1.9078315692336978	-0.5596695363315219	-1.6430133290596005	1.884612843055058	0.9801552249272775	-0.25670673828099794	2.0038737391944563	-0.8045565773112482	-1.089268487365597	1.8269229566142358	0.05788805714496329	-1.1197187388903505	1.8403667074318268	0.16263597737360827
28	0.9333333333333333	-0.2940917377368076	1.8342232041518758	-0.7000177919063582	-0.31284269916252533	1.8291821828478203	-0.6310143356478287	-0.3024894710317929	1.689294498883445	-0.5965422956435225	-0.2954767202767287	1.559905627321199	-0.5668751742451404	-0.2863604797215126	1.5326370749065632	-0.525210289074862	-0.29574349110482373	1.5395369121811635	-0.5021410374379638	-0.29965650022383	1.550705777434455	-0.5956924859563897	-0.2758421224723177	1.83645636101155	-0.7665755225613897	-0.2814992961573878	1.6879141406503195	-0.7474685496965418	-0.2420055273115262	1.5756574266640357	-0.7336205761882466	-0.38029063468604746	1.5065013385349555	-1.0582667149606126	-0.367378507053011	1.510238564997473	-1.0833399886814208				-0.2851454417360141	1.9988965950859794	-0.7128685986627489	-0.26619718703396344	2.064972292351387	-0.6654358065071364	-0.3127743016949179	1.9925223266848533	-0.6189913423353145	-0.3192154851343613	1.9078315692336978	-0.5596695363315219	-1.6430133290596005	1.884612843055058	0.9801552249272775	-0.25670673828099794	2.0038737391944563	-0.8045565773112482	-1.101504040066487	1.8280419055473063	0.07044322570413919	-1.1293025904087377	1.8414507219253793	0.1729957478222338
29	0.9666666666666667	-0.2940917377368076	1.8342232041518758	-0.7000177919063582	-0.31284269916252533	1.8291821828478203	-0.6310143356478287	-0.3024894710317929	1.689294498883445	-0.5965422956435225	-0.2954767202767287	1.559905627321199	-0.5668751742451404	-0.2863604797215126	1.5326370749065632	-0.525210289074862	-0.29574349110482373	1.5395369121811635	-0.5021410374379638	-0.29965650022383	1.550705777434455	-0.5956924859563897	-0.2758421224723177	1.83645636101155	-0.7665755225613897	-0.2814992961573878	1.6879141406503195	-0.7474685496965418	-0.2420055273115262	1.5756574266640357	-0.7336205761882466	-0.38029063468604746	1.5065013385349555	-1.0582667149606126	-0.367378507053011	1.510238564997473	-1.0833399886814208				-0.2851454417360141	1.9988965950859794	-0.7128685986627489	-0.26619718703396344	2.064972292351387	-0.6654358065071364	-0.3127743016949179	1.9925223266848533	-0.6189913423353145	-0.3192154851343613	1.9078315692336978	-0.5596695363315219	-1.6430133290596005	1.884612843055058	0.9801552249272775	-0.25670673828099794	2.0038737391944563	-0.8045565773112482	-1.107640824322906	1.8276880649661056	0.07622570810005977	-1.1402075097801367	1.841318046126533	0.18906502125874802
30	1.0	-0.2940917377368076	1.8342232041518758	-0.7000177919063582	-0.31284269916252533	1.8291821828478203	-0.6310143356478287	-0.3024894710317929	1.689294498883445	-0.5965422956435225	-0.2954767202767287	1.559905627321199	-0.5668751742451404	-0.2863604797215126	1.5326370749065632	-0.525210289074862	-0.29574349110482373	1.5395369121811635	-0.5021410374379638	-0.29965650022383	1.550705777434455	-0.5956924859563897	-0.2758421224723177	1.83645636101155	-0.7665755225613897	-0.2814992961573878	1.6879141406503195	-0.7474685496965418	-0.2420055273115262	1.5756574266640357	-0.7336205761882466	-0.38029063468604746	1.5065013385349555	-1.0582667149606126	-0.367378507053011	1.510238564997473	-1.0833399886814208				-0.2851454417360141	1.9988965950859794	-0.7128685986627489	-0.26619718703396344	2.064972292351387	-0.6654358065071364	-0.3127743016949179	1.9925223266848533	-0.6189913423353145	-0.3192154851343613	1.9078315692336978	-0.5596695363315219	-1.6430133290596005	1.884612843055058	0.9801552249272775	-0.25670673828099794	2.0038737391944563	-0.8045565773112482	-1.1061635365503768	1.8311497611800518	0.07097882584570366	-1.1613405457583723	1.8437069909213195	0.22090274266556517
